<mxfile host="app.diagrams.net" modified="2023-12-11T19:09:58.435Z" agent="Mozilla/5.0 (X11; Linux x86_64; rv:120.0) Gecko/20100101 Firefox/120.0" etag="NkZgdyalfiZeVsFrI_w8" version="22.1.7" type="device">
  <diagram name="Page-1" id="iFW8Y0zLe7XLypC7zXut">
    <mxGraphModel dx="978" dy="657" grid="1" gridSize="10" guides="1" tooltips="1" connect="1" arrows="1" fold="1" page="1" pageScale="1" pageWidth="850" pageHeight="1100" math="0" shadow="0">
      <root>
        <mxCell id="0" />
        <mxCell id="1" parent="0" />
        <mxCell id="Hf3_pHBMf3SCoTU-ouLs-2" value="" style="rounded=0;whiteSpace=wrap;html=1;fillColor=#fff2cc;strokeColor=#d6b656;opacity=50;" vertex="1" parent="1">
          <mxGeometry x="410" y="170" width="120" height="60" as="geometry" />
        </mxCell>
        <mxCell id="Hf3_pHBMf3SCoTU-ouLs-1" value="" style="rounded=0;whiteSpace=wrap;html=1;fillColor=#f8cecc;strokeColor=#b85450;opacity=50;" vertex="1" parent="1">
          <mxGeometry x="170" y="170" width="120" height="60" as="geometry" />
        </mxCell>
        <mxCell id="FGjDErVNnxQqlUnpZwMY-1" value="Owner" style="rounded=0;whiteSpace=wrap;html=1;fillColor=#d5e8d4;strokeColor=#82b366;" parent="1" vertex="1">
          <mxGeometry x="250" y="40" width="120" height="60" as="geometry" />
        </mxCell>
        <mxCell id="FGjDErVNnxQqlUnpZwMY-2" value="Group" style="rounded=0;whiteSpace=wrap;html=1;fillColor=#d5e8d4;strokeColor=#82b366;" parent="1" vertex="1">
          <mxGeometry x="80" y="40" width="120" height="60" as="geometry" />
        </mxCell>
        <mxCell id="FGjDErVNnxQqlUnpZwMY-3" value="Workbook" style="rounded=0;whiteSpace=wrap;html=1;fillColor=#fff2cc;strokeColor=#d6b656;" parent="1" vertex="1">
          <mxGeometry x="420" y="40" width="120" height="60" as="geometry" />
        </mxCell>
        <mxCell id="FGjDErVNnxQqlUnpZwMY-4" value="&lt;div&gt;Variant&lt;/div&gt;" style="rounded=0;whiteSpace=wrap;html=1;fillColor=#fff2cc;strokeColor=#d6b656;" parent="1" vertex="1">
          <mxGeometry x="400" y="160" width="120" height="60" as="geometry" />
        </mxCell>
        <mxCell id="FGjDErVNnxQqlUnpZwMY-5" value="Component" style="rounded=0;whiteSpace=wrap;html=1;fillColor=#f8cecc;strokeColor=#b85450;" parent="1" vertex="1">
          <mxGeometry x="160" y="160" width="120" height="60" as="geometry" />
        </mxCell>
        <mxCell id="FGjDErVNnxQqlUnpZwMY-6" value="ElementType" style="rounded=0;whiteSpace=wrap;html=1;fillColor=#dae8fc;strokeColor=#6c8ebf;" parent="1" vertex="1">
          <mxGeometry x="280" y="490" width="120" height="60" as="geometry" />
        </mxCell>
        <mxCell id="FGjDErVNnxQqlUnpZwMY-7" value="PropertyType" style="rounded=0;whiteSpace=wrap;html=1;fillColor=#dae8fc;strokeColor=#6c8ebf;" parent="1" vertex="1">
          <mxGeometry x="280" y="400" width="120" height="60" as="geometry" />
        </mxCell>
        <mxCell id="Hf3_pHBMf3SCoTU-ouLs-6" style="edgeStyle=orthogonalEdgeStyle;rounded=0;orthogonalLoop=1;jettySize=auto;html=1;entryX=0.25;entryY=0;entryDx=0;entryDy=0;exitX=0;exitY=0.25;exitDx=0;exitDy=0;" edge="1" parent="1" source="FGjDErVNnxQqlUnpZwMY-5" target="FGjDErVNnxQqlUnpZwMY-5">
          <mxGeometry relative="1" as="geometry">
            <mxPoint x="100" y="150" as="sourcePoint" />
            <Array as="points">
              <mxPoint x="140" y="175" />
              <mxPoint x="140" y="140" />
              <mxPoint x="190" y="140" />
            </Array>
          </mxGeometry>
        </mxCell>
        <mxCell id="FGjDErVNnxQqlUnpZwMY-8" value="Property" style="rounded=0;whiteSpace=wrap;html=1;fillColor=#fff2cc;strokeColor=#d6b656;" parent="1" vertex="1">
          <mxGeometry x="400" y="320" width="120" height="60" as="geometry" />
        </mxCell>
        <mxCell id="FGjDErVNnxQqlUnpZwMY-9" value="Modification" style="rounded=0;whiteSpace=wrap;html=1;" parent="1" vertex="1">
          <mxGeometry x="280" y="240" width="120" height="60" as="geometry" />
        </mxCell>
        <mxCell id="FGjDErVNnxQqlUnpZwMY-10" value="Property" style="rounded=0;whiteSpace=wrap;html=1;fillColor=#f8cecc;strokeColor=#b85450;" parent="1" vertex="1">
          <mxGeometry x="160" y="320" width="120" height="60" as="geometry" />
        </mxCell>
        <mxCell id="FGjDErVNnxQqlUnpZwMY-11" value="" style="endArrow=classic;html=1;rounded=0;exitX=0.342;exitY=0.983;exitDx=0;exitDy=0;entryX=0.5;entryY=0;entryDx=0;entryDy=0;exitPerimeter=0;" parent="1" source="FGjDErVNnxQqlUnpZwMY-3" target="FGjDErVNnxQqlUnpZwMY-4" edge="1">
          <mxGeometry width="50" height="50" relative="1" as="geometry">
            <mxPoint x="400" y="370" as="sourcePoint" />
            <mxPoint x="450" y="320" as="targetPoint" />
          </mxGeometry>
        </mxCell>
        <mxCell id="FGjDErVNnxQqlUnpZwMY-12" value="" style="endArrow=classic;html=1;rounded=0;exitX=0.5;exitY=1;exitDx=0;exitDy=0;entryX=0.5;entryY=0;entryDx=0;entryDy=0;" parent="1" source="FGjDErVNnxQqlUnpZwMY-4" target="FGjDErVNnxQqlUnpZwMY-8" edge="1">
          <mxGeometry width="50" height="50" relative="1" as="geometry">
            <mxPoint x="400" y="370" as="sourcePoint" />
            <mxPoint x="460" y="320" as="targetPoint" />
          </mxGeometry>
        </mxCell>
        <mxCell id="FGjDErVNnxQqlUnpZwMY-14" value="" style="endArrow=classic;html=1;rounded=0;exitX=0.133;exitY=1;exitDx=0;exitDy=0;exitPerimeter=0;" parent="1" source="FGjDErVNnxQqlUnpZwMY-1" edge="1">
          <mxGeometry width="50" height="50" relative="1" as="geometry">
            <mxPoint x="400" y="370" as="sourcePoint" />
            <mxPoint x="266" y="160" as="targetPoint" />
          </mxGeometry>
        </mxCell>
        <mxCell id="FGjDErVNnxQqlUnpZwMY-15" value="" style="endArrow=classic;html=1;rounded=0;exitX=0;exitY=0.5;exitDx=0;exitDy=0;entryX=1;entryY=0.5;entryDx=0;entryDy=0;" parent="1" source="FGjDErVNnxQqlUnpZwMY-1" target="FGjDErVNnxQqlUnpZwMY-2" edge="1">
          <mxGeometry width="50" height="50" relative="1" as="geometry">
            <mxPoint x="400" y="370" as="sourcePoint" />
            <mxPoint x="450" y="320" as="targetPoint" />
          </mxGeometry>
        </mxCell>
        <mxCell id="FGjDErVNnxQqlUnpZwMY-16" value="" style="endArrow=classic;html=1;rounded=0;exitX=0.5;exitY=1;exitDx=0;exitDy=0;edgeStyle=orthogonalEdgeStyle;entryX=0.5;entryY=0;entryDx=0;entryDy=0;" parent="1" source="FGjDErVNnxQqlUnpZwMY-2" target="FGjDErVNnxQqlUnpZwMY-5" edge="1">
          <mxGeometry width="50" height="50" relative="1" as="geometry">
            <mxPoint x="400" y="370" as="sourcePoint" />
            <mxPoint x="210" y="160" as="targetPoint" />
            <Array as="points">
              <mxPoint x="140" y="120" />
              <mxPoint x="220" y="120" />
            </Array>
          </mxGeometry>
        </mxCell>
        <mxCell id="FGjDErVNnxQqlUnpZwMY-17" value="" style="endArrow=classic;html=1;rounded=0;entryX=0;entryY=0.5;entryDx=0;entryDy=0;exitX=0;exitY=0.5;exitDx=0;exitDy=0;edgeStyle=orthogonalEdgeStyle;" parent="1" source="FGjDErVNnxQqlUnpZwMY-5" target="FGjDErVNnxQqlUnpZwMY-6" edge="1">
          <mxGeometry width="50" height="50" relative="1" as="geometry">
            <mxPoint x="110" y="180" as="sourcePoint" />
            <mxPoint x="160" y="559" as="targetPoint" />
            <Array as="points">
              <mxPoint x="120" y="190" />
              <mxPoint x="120" y="520" />
            </Array>
          </mxGeometry>
        </mxCell>
        <mxCell id="FGjDErVNnxQqlUnpZwMY-23" value="" style="endArrow=classic;html=1;rounded=0;exitX=1;exitY=0.75;exitDx=0;exitDy=0;entryX=1;entryY=0.5;entryDx=0;entryDy=0;edgeStyle=orthogonalEdgeStyle;" parent="1" source="FGjDErVNnxQqlUnpZwMY-4" target="FGjDErVNnxQqlUnpZwMY-6" edge="1">
          <mxGeometry width="50" height="50" relative="1" as="geometry">
            <mxPoint x="400" y="370" as="sourcePoint" />
            <mxPoint x="450" y="320" as="targetPoint" />
            <Array as="points">
              <mxPoint x="560" y="205" />
              <mxPoint x="560" y="520" />
            </Array>
          </mxGeometry>
        </mxCell>
        <mxCell id="FGjDErVNnxQqlUnpZwMY-24" value="" style="endArrow=classic;html=1;rounded=0;exitX=0.5;exitY=0;exitDx=0;exitDy=0;" parent="1" source="FGjDErVNnxQqlUnpZwMY-6" target="FGjDErVNnxQqlUnpZwMY-7" edge="1">
          <mxGeometry width="50" height="50" relative="1" as="geometry">
            <mxPoint x="400" y="370" as="sourcePoint" />
            <mxPoint x="450" y="320" as="targetPoint" />
          </mxGeometry>
        </mxCell>
        <mxCell id="FGjDErVNnxQqlUnpZwMY-25" value="" style="endArrow=classic;html=1;rounded=0;exitX=1;exitY=0.5;exitDx=0;exitDy=0;entryX=0.5;entryY=1;entryDx=0;entryDy=0;edgeStyle=orthogonalEdgeStyle;" parent="1" source="FGjDErVNnxQqlUnpZwMY-7" target="FGjDErVNnxQqlUnpZwMY-8" edge="1">
          <mxGeometry width="50" height="50" relative="1" as="geometry">
            <mxPoint x="400" y="370" as="sourcePoint" />
            <mxPoint x="450" y="320" as="targetPoint" />
          </mxGeometry>
        </mxCell>
        <mxCell id="FGjDErVNnxQqlUnpZwMY-26" value="" style="endArrow=classic;html=1;rounded=0;exitX=0;exitY=0.5;exitDx=0;exitDy=0;entryX=0.5;entryY=1;entryDx=0;entryDy=0;edgeStyle=orthogonalEdgeStyle;" parent="1" source="FGjDErVNnxQqlUnpZwMY-7" target="FGjDErVNnxQqlUnpZwMY-10" edge="1">
          <mxGeometry width="50" height="50" relative="1" as="geometry">
            <mxPoint x="400" y="370" as="sourcePoint" />
            <mxPoint x="450" y="320" as="targetPoint" />
          </mxGeometry>
        </mxCell>
        <mxCell id="FGjDErVNnxQqlUnpZwMY-27" value="" style="endArrow=classic;html=1;rounded=0;exitX=0.5;exitY=1;exitDx=0;exitDy=0;entryX=0.5;entryY=0;entryDx=0;entryDy=0;" parent="1" source="FGjDErVNnxQqlUnpZwMY-5" target="FGjDErVNnxQqlUnpZwMY-10" edge="1">
          <mxGeometry width="50" height="50" relative="1" as="geometry">
            <mxPoint x="400" y="370" as="sourcePoint" />
            <mxPoint x="450" y="320" as="targetPoint" />
          </mxGeometry>
        </mxCell>
        <mxCell id="FGjDErVNnxQqlUnpZwMY-28" value="" style="endArrow=classic;html=1;rounded=0;exitX=0;exitY=0.5;exitDx=0;exitDy=0;entryX=1;entryY=0.5;entryDx=0;entryDy=0;" parent="1" source="FGjDErVNnxQqlUnpZwMY-4" target="FGjDErVNnxQqlUnpZwMY-5" edge="1">
          <mxGeometry width="50" height="50" relative="1" as="geometry">
            <mxPoint x="400" y="370" as="sourcePoint" />
            <mxPoint x="450" y="320" as="targetPoint" />
          </mxGeometry>
        </mxCell>
        <mxCell id="FGjDErVNnxQqlUnpZwMY-29" value="" style="endArrow=classic;html=1;rounded=0;exitX=0;exitY=0.5;exitDx=0;exitDy=0;entryX=0.75;entryY=0;entryDx=0;entryDy=0;edgeStyle=orthogonalEdgeStyle;" parent="1" source="FGjDErVNnxQqlUnpZwMY-9" target="FGjDErVNnxQqlUnpZwMY-10" edge="1">
          <mxGeometry width="50" height="50" relative="1" as="geometry">
            <mxPoint x="400" y="370" as="sourcePoint" />
            <mxPoint x="450" y="320" as="targetPoint" />
          </mxGeometry>
        </mxCell>
        <mxCell id="FGjDErVNnxQqlUnpZwMY-30" value="" style="endArrow=classic;html=1;rounded=0;exitX=1;exitY=0.5;exitDx=0;exitDy=0;entryX=0.333;entryY=-0.017;entryDx=0;entryDy=0;entryPerimeter=0;edgeStyle=orthogonalEdgeStyle;" parent="1" source="FGjDErVNnxQqlUnpZwMY-9" target="FGjDErVNnxQqlUnpZwMY-8" edge="1">
          <mxGeometry width="50" height="50" relative="1" as="geometry">
            <mxPoint x="400" y="370" as="sourcePoint" />
            <mxPoint x="450" y="320" as="targetPoint" />
          </mxGeometry>
        </mxCell>
        <mxCell id="FGjDErVNnxQqlUnpZwMY-31" value="" style="endArrow=classic;html=1;rounded=0;exitX=1;exitY=0.5;exitDx=0;exitDy=0;" parent="1" source="FGjDErVNnxQqlUnpZwMY-1" target="FGjDErVNnxQqlUnpZwMY-3" edge="1">
          <mxGeometry width="50" height="50" relative="1" as="geometry">
            <mxPoint x="400" y="370" as="sourcePoint" />
            <mxPoint x="450" y="320" as="targetPoint" />
          </mxGeometry>
        </mxCell>
        <mxCell id="FGjDErVNnxQqlUnpZwMY-32" value="" style="endArrow=classic;html=1;rounded=0;exitX=0.833;exitY=1;exitDx=0;exitDy=0;exitPerimeter=0;entryX=0.25;entryY=0;entryDx=0;entryDy=0;edgeStyle=orthogonalEdgeStyle;" parent="1" source="FGjDErVNnxQqlUnpZwMY-1" target="FGjDErVNnxQqlUnpZwMY-4" edge="1">
          <mxGeometry width="50" height="50" relative="1" as="geometry">
            <mxPoint x="400" y="370" as="sourcePoint" />
            <mxPoint x="450" y="320" as="targetPoint" />
          </mxGeometry>
        </mxCell>
        <mxCell id="Hf3_pHBMf3SCoTU-ouLs-9" style="edgeStyle=orthogonalEdgeStyle;rounded=0;orthogonalLoop=1;jettySize=auto;html=1;exitX=0.75;exitY=0;exitDx=0;exitDy=0;" edge="1" parent="1" source="FGjDErVNnxQqlUnpZwMY-4">
          <mxGeometry relative="1" as="geometry">
            <mxPoint x="600" y="155" as="sourcePoint" />
            <mxPoint x="520" y="180" as="targetPoint" />
            <Array as="points">
              <mxPoint x="490" y="140" />
              <mxPoint x="550" y="140" />
              <mxPoint x="550" y="180" />
            </Array>
          </mxGeometry>
        </mxCell>
        <mxCell id="Hf3_pHBMf3SCoTU-ouLs-10" value="" style="endArrow=classic;html=1;rounded=0;exitX=0.75;exitY=0;exitDx=0;exitDy=0;entryX=0.45;entryY=-0.017;entryDx=0;entryDy=0;entryPerimeter=0;edgeStyle=orthogonalEdgeStyle;" edge="1" parent="1" source="FGjDErVNnxQqlUnpZwMY-2" target="FGjDErVNnxQqlUnpZwMY-3">
          <mxGeometry width="50" height="50" relative="1" as="geometry">
            <mxPoint x="420" y="370" as="sourcePoint" />
            <mxPoint x="470" y="20" as="targetPoint" />
            <Array as="points">
              <mxPoint x="170" y="20" />
              <mxPoint x="474" y="20" />
            </Array>
          </mxGeometry>
        </mxCell>
        <mxCell id="Hf3_pHBMf3SCoTU-ouLs-11" value="" style="endArrow=classic;html=1;rounded=0;exitX=0.5;exitY=0;exitDx=0;exitDy=0;entryX=1;entryY=0.5;entryDx=0;entryDy=0;edgeStyle=orthogonalEdgeStyle;" edge="1" parent="1" source="FGjDErVNnxQqlUnpZwMY-2" target="FGjDErVNnxQqlUnpZwMY-4">
          <mxGeometry width="50" height="50" relative="1" as="geometry">
            <mxPoint x="400" y="320" as="sourcePoint" />
            <mxPoint x="450" y="270" as="targetPoint" />
            <Array as="points">
              <mxPoint x="140" y="10" />
              <mxPoint x="560" y="10" />
              <mxPoint x="560" y="190" />
            </Array>
          </mxGeometry>
        </mxCell>
      </root>
    </mxGraphModel>
  </diagram>
</mxfile>
